<svg xmlns="http://www.w3.org/2000/svg" version="1.1" xmlns:xlink="http://www.w3.org/1999/xlink" xmlns:svgjs="http://svgjs.dev/svgjs" width="1000" height="1461" viewBox="0 0 1000 1461"><g transform="matrix(1,0,0,1,-0.27241591918669883,0.5915306899942152)"><svg viewBox="0 0 169 247" data-background-color="#ffffff" preserveAspectRatio="xMidYMid meet" height="1461" width="1000" xmlns="http://www.w3.org/2000/svg" xmlns:xlink="http://www.w3.org/1999/xlink"><g id="tight-bounds" transform="matrix(1,0,0,1,0.0460386360145435,-0.09999446924805966)"><svg viewBox="0 0 168.90791788856305 247.2" height="247.2" width="168.90791788856305"><g><svg viewBox="0 0 168.90791788856305 247.2" height="247.2" width="168.90791788856305"><g><svg viewBox="0 0 168.90791788856305 247.2" height="247.2" width="168.90791788856305"><g id="textblocktransform"><svg viewBox="0 0 168.90791788856305 247.2" height="247.2" width="168.90791788856305" id="textblock"><g><svg viewBox="0 0 168.90791788856305 247.2" height="247.2" width="168.90791788856305"><g transform="matrix(1,0,0,1,0,0)"><svg width="168.90791788856305" viewBox="3.950000047683716 -34.099998474121094 23.299999237060547 34.099998474121094" height="247.2" data-palette-color="#77d4fc"><g class="wordmark-text-0" data-fill-palette-color="primary" id="text-0"><path d="M27.25 0L23 0 11.3-16.4 7.7-12.15 7.7 0 3.95 0 3.95-34.1 7.7-34.1 7.7-16.85 22.1-34.1 26.25-34.1 13.5-19 27.25 0Z" fill="#77d4fc" data-fill-palette-color="primary"></path></g></svg></g></svg></g></svg></g></svg></g></svg></g><defs></defs></svg><rect width="168.90791788856305" height="247.2" fill="none" stroke="none" visibility="hidden"></rect></g></svg></g></svg>